<svg xmlns="http://www.w3.org/2000/svg" viewBox="0 0 32 32">
  <rect width="32" height="32" rx="6" fill="#FFF8F0"/>
  <path d="M5 7c0-1.1.9-2 2-2h18c1.1 0 2 .9 2 2v14c0 1.1-.9 2-2 2h-5l-4 4-4-4H7c-1.1 0-2-.9-2-2V7z" fill="#E07A5F"/>
  <path d="M16 5.5c-3 0-5.5 1.5-5.5 4 0 1.7 1.4 3.1 3.5 3.8l2 .7c1.4.5 2 1 2 2 0 1.3-1.3 2-2.8 2-1.7 0-3.1-1-3.5-2.7l-1.4.4c.5 2.4 2.4 3.8 4.9 3.8 3.1 0 5.5-1.7 5.5-4.5 0-1.7-1.4-3.1-3.5-3.8l-2-.7c-1.4-.5-2-1-2-1.7 0-1 1-1.7 2.8-1.7 1.4 0 2.4.7 2.8 2l1.4-.3c-.6-2-2.4-3.3-4.2-3.3z" fill="#FFF8F0"/>
</svg>