<svg width="4258" height="989" viewBox="0 0 4258 989" fill="none" xmlns="http://www.w3.org/2000/svg">
<mask id="path-1-outside-1_417_34" maskUnits="userSpaceOnUse" x="1186" y="169" width="2800" height="686" fill="black">
<rect fill="white" x="1186" y="169" width="2800" height="686"/>
<path d="M1396.6 708.4C1363.47 708.4 1332.67 702.333 1304.2 690.2C1276.2 678.067 1251.93 661.267 1231.4 639.8C1211.33 617.867 1196.63 592.433 1187.3 563.5L1266.4 529.2C1279 559.067 1297.2 582.633 1321 599.9C1344.8 616.7 1371.63 625.1 1401.5 625.1C1418.3 625.1 1432.77 622.533 1444.9 617.4C1457.5 611.8 1467.07 604.333 1473.6 595C1480.6 585.667 1484.1 574.467 1484.1 561.4C1484.1 546 1479.43 533.4 1470.1 523.6C1461.23 513.333 1447.7 505.4 1429.5 499.8L1329.4 467.6C1288.8 455 1258.23 436.1 1237.7 410.9C1217.17 385.7 1206.9 356.067 1206.9 322C1206.9 292.133 1214.13 265.767 1228.6 242.9C1243.53 220.033 1264.07 202.3 1290.2 189.7C1316.8 176.633 1347.13 170.1 1381.2 170.1C1412.47 170.1 1441.17 175.7 1467.3 186.9C1493.43 197.633 1515.83 212.8 1534.5 232.4C1553.63 251.533 1567.87 274.167 1577.2 300.3L1498.8 335.3C1488.53 309.167 1473.13 289.1 1452.6 275.1C1432.07 260.633 1408.27 253.4 1381.2 253.4C1365.33 253.4 1351.33 256.2 1339.2 261.8C1327.07 266.933 1317.5 274.4 1310.5 284.2C1303.97 293.533 1300.7 304.733 1300.7 317.8C1300.7 332.267 1305.37 345.1 1314.7 356.3C1324.03 367.033 1338.27 375.433 1357.4 381.5L1453.3 411.6C1494.83 425.133 1525.87 443.8 1546.4 467.6C1567.4 491.4 1577.9 520.8 1577.9 555.8C1577.9 585.667 1570.2 612.033 1554.8 634.9C1539.4 657.767 1518.17 675.733 1491.1 688.8C1464.03 701.867 1432.53 708.4 1396.6 708.4ZM1620.92 840V319.2H1707.02V394.8L1698.62 375.9C1711.69 355.367 1729.42 339.5 1751.82 328.3C1774.22 316.633 1800.12 310.8 1829.52 310.8C1865.46 310.8 1897.89 319.667 1926.82 337.4C1955.76 355.133 1978.62 378.933 1995.42 408.8C2012.69 438.667 2021.32 472.267 2021.32 509.6C2021.32 546.467 2012.92 580.067 1996.12 610.4C1979.32 640.733 1956.46 664.767 1927.52 682.5C1898.59 699.767 1865.69 708.4 1828.82 708.4C1801.29 708.4 1775.86 703.033 1752.52 692.3C1729.66 681.1 1711.46 665.233 1697.92 644.7L1712.62 626.5V840H1620.92ZM1818.32 624.4C1839.32 624.4 1857.99 619.5 1874.32 609.7C1890.66 599.9 1903.26 586.367 1912.12 569.1C1921.46 551.833 1926.12 532 1926.12 509.6C1926.12 487.2 1921.46 467.6 1912.12 450.8C1903.26 433.533 1890.66 420 1874.32 410.2C1857.99 399.933 1839.32 394.8 1818.32 394.8C1798.26 394.8 1780.06 399.7 1763.72 409.5C1747.86 419.3 1735.26 433.067 1725.92 450.8C1717.06 468.067 1712.62 487.667 1712.62 509.6C1712.62 532 1717.06 551.833 1725.92 569.1C1735.26 586.367 1747.86 599.9 1763.72 609.7C1780.06 619.5 1798.26 624.4 1818.32 624.4ZM2056.24 700V319.2H2142.34V403.9L2135.34 391.3C2144.2 362.833 2157.97 343 2176.64 331.8C2195.77 320.6 2218.64 315 2245.24 315H2267.64V396.2H2234.74C2208.6 396.2 2187.6 404.367 2171.74 420.7C2155.87 436.567 2147.94 458.967 2147.94 487.9V700H2056.24ZM2398.55 708.4C2371.95 708.4 2348.85 703.967 2329.25 695.1C2309.65 686.233 2294.48 673.633 2283.75 657.3C2273.02 640.5 2267.65 621.133 2267.65 599.2C2267.65 578.2 2272.32 559.533 2281.65 543.2C2290.98 526.4 2305.45 512.4 2325.05 501.2C2344.65 490 2369.38 482.067 2399.25 477.4L2523.85 457.1V527.1L2416.75 545.3C2398.55 548.567 2385.02 554.4 2376.15 562.8C2367.28 571.2 2362.85 582.167 2362.85 595.7C2362.85 608.767 2367.75 619.267 2377.55 627.2C2387.82 634.667 2400.42 638.4 2415.35 638.4C2434.48 638.4 2451.28 634.433 2465.75 626.5C2480.68 618.1 2492.12 606.667 2500.05 592.2C2508.45 577.733 2512.65 561.867 2512.65 544.6V446.6C2512.65 430.267 2506.12 416.733 2493.05 406C2480.45 394.8 2463.65 389.2 2442.65 389.2C2423.05 389.2 2405.55 394.567 2390.15 405.3C2375.22 415.567 2364.25 429.333 2357.25 446.6L2282.35 410.2C2289.82 390.133 2301.48 372.867 2317.35 358.4C2333.68 343.467 2352.82 331.8 2374.75 323.4C2396.68 315 2420.48 310.8 2446.15 310.8C2477.42 310.8 2504.95 316.633 2528.75 328.3C2552.55 339.5 2570.98 355.367 2584.05 375.9C2597.58 395.967 2604.35 419.533 2604.35 446.6V700H2517.55V634.9L2537.15 633.5C2527.35 649.833 2515.68 663.6 2502.15 674.8C2488.62 685.533 2473.22 693.933 2455.95 700C2438.68 705.6 2419.55 708.4 2398.55 708.4ZM2831.21 708.4C2794.34 708.4 2761.44 699.767 2732.51 682.5C2703.57 664.767 2680.71 640.733 2663.91 610.4C2647.11 580.067 2638.71 546.467 2638.71 509.6C2638.71 472.267 2647.11 438.667 2663.91 408.8C2680.71 378.933 2703.57 355.133 2732.51 337.4C2761.91 319.667 2794.57 310.8 2830.51 310.8C2859.44 310.8 2885.11 316.633 2907.51 328.3C2930.37 339.5 2948.34 355.367 2961.41 375.9L2947.41 394.8V170.1H3039.11V700H2952.31V626.5L2962.11 644.7C2949.04 665.233 2930.84 681.1 2907.51 692.3C2884.17 703.033 2858.74 708.4 2831.21 708.4ZM2841.01 624.4C2862.01 624.4 2880.44 619.5 2896.31 609.7C2912.17 599.9 2924.54 586.367 2933.41 569.1C2942.74 551.833 2947.41 532 2947.41 509.6C2947.41 487.667 2942.74 468.067 2933.41 450.8C2924.54 433.067 2912.17 419.3 2896.31 409.5C2880.44 399.7 2862.01 394.8 2841.01 394.8C2820.47 394.8 2802.04 399.933 2785.71 410.2C2769.37 420 2756.54 433.533 2747.21 450.8C2738.34 467.6 2733.91 487.2 2733.91 509.6C2733.91 532 2738.34 551.833 2747.21 569.1C2756.54 586.367 2769.37 599.9 2785.71 609.7C2802.04 619.5 2820.47 624.4 2841.01 624.4ZM3089.42 700V170.1H3181.12V700H3089.42ZM3411.39 708.4C3372.19 708.4 3337.89 699.533 3308.49 681.8C3279.09 664.067 3256.22 640.033 3239.89 609.7C3223.55 579.367 3215.39 545.767 3215.39 508.9C3215.39 470.633 3223.55 436.8 3239.89 407.4C3256.69 377.533 3279.32 353.967 3307.79 336.7C3336.72 319.433 3368.92 310.8 3404.39 310.8C3434.25 310.8 3460.39 315.7 3482.79 325.5C3505.65 335.3 3525.02 348.833 3540.89 366.1C3556.75 383.367 3568.89 403.2 3577.29 425.6C3585.69 447.533 3589.89 471.333 3589.89 497C3589.89 503.533 3589.42 510.3 3588.49 517.3C3588.02 524.3 3586.85 530.367 3584.99 535.5H3290.99V465.5H3533.19L3489.79 498.4C3493.99 476.933 3492.82 457.8 3486.29 441C3480.22 424.2 3469.95 410.9 3455.49 401.1C3441.49 391.3 3424.45 386.4 3404.39 386.4C3385.25 386.4 3368.22 391.3 3353.29 401.1C3338.35 410.433 3326.92 424.433 3318.99 443.1C3311.52 461.3 3308.72 483.467 3310.59 509.6C3308.72 532.933 3311.75 553.7 3319.69 571.9C3328.09 589.633 3340.22 603.4 3356.09 613.2C3372.42 623 3391.09 627.9 3412.09 627.9C3433.09 627.9 3450.82 623.467 3465.29 614.6C3480.22 605.733 3491.89 593.833 3500.29 578.9L3574.49 615.3C3567.02 633.5 3555.35 649.6 3539.49 663.6C3523.62 677.6 3504.72 688.567 3482.79 696.5C3461.32 704.433 3437.52 708.4 3411.39 708.4ZM3670.6 854C3660.33 854 3650.3 853.067 3640.5 851.2C3630.7 849.8 3621.83 847 3613.9 842.8V766.5C3619.97 767.9 3627.2 769.3 3635.6 770.7C3644.47 772.1 3652.63 772.8 3660.1 772.8C3681.1 772.8 3696.27 767.9 3705.6 758.1C3715.4 748.767 3724.03 736.167 3731.5 720.3L3756.7 661.5L3755.3 738.5L3589.4 319.2H3688.1L3804.3 628.6H3769.3L3884.8 319.2H3984.2L3818.3 738.5C3808.5 762.767 3796.6 783.533 3782.6 800.8C3768.6 818.067 3752.27 831.133 3733.6 840C3715.4 849.333 3694.4 854 3670.6 854Z"/>
</mask>
<path d="M1396.6 708.4C1363.47 708.4 1332.67 702.333 1304.2 690.2C1276.2 678.067 1251.93 661.267 1231.4 639.8C1211.33 617.867 1196.63 592.433 1187.3 563.5L1266.4 529.2C1279 559.067 1297.2 582.633 1321 599.9C1344.8 616.7 1371.63 625.1 1401.5 625.1C1418.3 625.1 1432.77 622.533 1444.9 617.4C1457.5 611.8 1467.07 604.333 1473.6 595C1480.6 585.667 1484.1 574.467 1484.1 561.4C1484.1 546 1479.43 533.4 1470.1 523.6C1461.23 513.333 1447.7 505.4 1429.5 499.8L1329.4 467.6C1288.8 455 1258.23 436.1 1237.7 410.9C1217.17 385.7 1206.9 356.067 1206.9 322C1206.9 292.133 1214.13 265.767 1228.6 242.9C1243.53 220.033 1264.07 202.3 1290.2 189.7C1316.8 176.633 1347.13 170.1 1381.2 170.1C1412.47 170.1 1441.17 175.7 1467.3 186.9C1493.43 197.633 1515.83 212.8 1534.5 232.4C1553.63 251.533 1567.87 274.167 1577.2 300.3L1498.8 335.3C1488.53 309.167 1473.13 289.1 1452.6 275.1C1432.07 260.633 1408.27 253.4 1381.2 253.4C1365.33 253.4 1351.33 256.2 1339.2 261.8C1327.07 266.933 1317.5 274.4 1310.5 284.2C1303.97 293.533 1300.7 304.733 1300.7 317.8C1300.7 332.267 1305.37 345.1 1314.7 356.3C1324.03 367.033 1338.27 375.433 1357.4 381.5L1453.3 411.6C1494.83 425.133 1525.87 443.8 1546.4 467.6C1567.4 491.4 1577.9 520.8 1577.9 555.8C1577.9 585.667 1570.2 612.033 1554.8 634.9C1539.4 657.767 1518.17 675.733 1491.1 688.8C1464.03 701.867 1432.53 708.4 1396.6 708.4ZM1620.92 840V319.2H1707.02V394.8L1698.62 375.9C1711.69 355.367 1729.42 339.5 1751.82 328.3C1774.22 316.633 1800.12 310.8 1829.52 310.8C1865.46 310.8 1897.89 319.667 1926.82 337.4C1955.76 355.133 1978.62 378.933 1995.42 408.8C2012.69 438.667 2021.32 472.267 2021.32 509.6C2021.32 546.467 2012.92 580.067 1996.12 610.4C1979.32 640.733 1956.46 664.767 1927.52 682.5C1898.59 699.767 1865.69 708.4 1828.82 708.4C1801.29 708.4 1775.86 703.033 1752.52 692.3C1729.66 681.1 1711.46 665.233 1697.92 644.7L1712.62 626.5V840H1620.92ZM1818.32 624.4C1839.32 624.4 1857.99 619.5 1874.32 609.7C1890.66 599.9 1903.26 586.367 1912.12 569.1C1921.46 551.833 1926.12 532 1926.12 509.6C1926.12 487.2 1921.46 467.6 1912.12 450.8C1903.26 433.533 1890.66 420 1874.32 410.2C1857.99 399.933 1839.32 394.8 1818.32 394.8C1798.26 394.8 1780.06 399.7 1763.72 409.5C1747.86 419.3 1735.26 433.067 1725.92 450.8C1717.06 468.067 1712.62 487.667 1712.62 509.6C1712.62 532 1717.06 551.833 1725.92 569.1C1735.26 586.367 1747.86 599.9 1763.72 609.7C1780.06 619.5 1798.26 624.4 1818.32 624.4ZM2056.24 700V319.2H2142.34V403.9L2135.34 391.3C2144.2 362.833 2157.97 343 2176.64 331.8C2195.77 320.6 2218.64 315 2245.24 315H2267.64V396.2H2234.74C2208.6 396.2 2187.6 404.367 2171.74 420.7C2155.87 436.567 2147.94 458.967 2147.94 487.9V700H2056.24ZM2398.55 708.4C2371.95 708.4 2348.85 703.967 2329.25 695.1C2309.65 686.233 2294.48 673.633 2283.75 657.3C2273.02 640.5 2267.65 621.133 2267.65 599.2C2267.65 578.2 2272.32 559.533 2281.65 543.2C2290.98 526.4 2305.45 512.4 2325.05 501.2C2344.65 490 2369.38 482.067 2399.25 477.4L2523.85 457.1V527.1L2416.75 545.3C2398.55 548.567 2385.02 554.4 2376.15 562.8C2367.28 571.2 2362.85 582.167 2362.85 595.7C2362.85 608.767 2367.75 619.267 2377.55 627.2C2387.82 634.667 2400.42 638.4 2415.35 638.4C2434.48 638.4 2451.28 634.433 2465.75 626.5C2480.68 618.1 2492.12 606.667 2500.05 592.2C2508.45 577.733 2512.65 561.867 2512.65 544.6V446.6C2512.65 430.267 2506.12 416.733 2493.05 406C2480.45 394.8 2463.65 389.2 2442.65 389.2C2423.05 389.2 2405.55 394.567 2390.15 405.3C2375.22 415.567 2364.25 429.333 2357.25 446.6L2282.35 410.2C2289.82 390.133 2301.48 372.867 2317.35 358.4C2333.68 343.467 2352.82 331.8 2374.75 323.4C2396.68 315 2420.48 310.8 2446.15 310.8C2477.42 310.8 2504.95 316.633 2528.75 328.3C2552.55 339.5 2570.98 355.367 2584.05 375.9C2597.58 395.967 2604.35 419.533 2604.35 446.6V700H2517.55V634.9L2537.15 633.5C2527.35 649.833 2515.68 663.6 2502.15 674.8C2488.62 685.533 2473.22 693.933 2455.95 700C2438.68 705.6 2419.55 708.4 2398.55 708.4ZM2831.21 708.4C2794.34 708.4 2761.44 699.767 2732.51 682.5C2703.57 664.767 2680.71 640.733 2663.91 610.4C2647.11 580.067 2638.71 546.467 2638.71 509.6C2638.71 472.267 2647.11 438.667 2663.91 408.8C2680.71 378.933 2703.57 355.133 2732.51 337.4C2761.91 319.667 2794.57 310.8 2830.51 310.8C2859.44 310.8 2885.11 316.633 2907.51 328.3C2930.37 339.5 2948.34 355.367 2961.41 375.9L2947.41 394.8V170.1H3039.11V700H2952.31V626.5L2962.11 644.7C2949.04 665.233 2930.84 681.1 2907.51 692.3C2884.17 703.033 2858.74 708.4 2831.21 708.4ZM2841.01 624.4C2862.01 624.4 2880.44 619.5 2896.31 609.7C2912.17 599.9 2924.54 586.367 2933.41 569.1C2942.74 551.833 2947.41 532 2947.41 509.6C2947.41 487.667 2942.74 468.067 2933.41 450.8C2924.54 433.067 2912.17 419.3 2896.31 409.5C2880.44 399.7 2862.01 394.8 2841.01 394.8C2820.47 394.8 2802.04 399.933 2785.71 410.2C2769.37 420 2756.54 433.533 2747.21 450.8C2738.34 467.6 2733.91 487.2 2733.91 509.6C2733.91 532 2738.34 551.833 2747.21 569.1C2756.54 586.367 2769.37 599.9 2785.71 609.7C2802.04 619.5 2820.47 624.4 2841.01 624.4ZM3089.42 700V170.1H3181.12V700H3089.42ZM3411.39 708.4C3372.19 708.4 3337.89 699.533 3308.49 681.8C3279.09 664.067 3256.22 640.033 3239.89 609.7C3223.55 579.367 3215.39 545.767 3215.39 508.9C3215.39 470.633 3223.55 436.8 3239.89 407.4C3256.69 377.533 3279.32 353.967 3307.79 336.7C3336.72 319.433 3368.92 310.8 3404.39 310.8C3434.25 310.8 3460.39 315.7 3482.79 325.5C3505.65 335.3 3525.02 348.833 3540.89 366.1C3556.75 383.367 3568.89 403.2 3577.29 425.6C3585.69 447.533 3589.89 471.333 3589.89 497C3589.89 503.533 3589.42 510.3 3588.49 517.3C3588.02 524.3 3586.85 530.367 3584.99 535.5H3290.99V465.5H3533.19L3489.79 498.4C3493.99 476.933 3492.82 457.8 3486.29 441C3480.22 424.2 3469.95 410.9 3455.49 401.1C3441.49 391.3 3424.45 386.4 3404.39 386.4C3385.25 386.4 3368.22 391.3 3353.29 401.1C3338.35 410.433 3326.92 424.433 3318.99 443.1C3311.52 461.3 3308.72 483.467 3310.59 509.6C3308.72 532.933 3311.75 553.7 3319.69 571.9C3328.09 589.633 3340.22 603.4 3356.09 613.2C3372.42 623 3391.09 627.9 3412.09 627.9C3433.09 627.9 3450.82 623.467 3465.29 614.6C3480.22 605.733 3491.89 593.833 3500.29 578.9L3574.49 615.3C3567.02 633.5 3555.35 649.6 3539.49 663.6C3523.62 677.6 3504.72 688.567 3482.79 696.5C3461.32 704.433 3437.52 708.4 3411.39 708.4ZM3670.6 854C3660.33 854 3650.3 853.067 3640.5 851.2C3630.7 849.8 3621.83 847 3613.9 842.8V766.5C3619.97 767.9 3627.2 769.3 3635.6 770.7C3644.47 772.1 3652.63 772.8 3660.1 772.8C3681.1 772.8 3696.27 767.9 3705.6 758.1C3715.4 748.767 3724.03 736.167 3731.5 720.3L3756.7 661.5L3755.3 738.5L3589.4 319.2H3688.1L3804.3 628.6H3769.3L3884.8 319.2H3984.2L3818.3 738.5C3808.5 762.767 3796.6 783.533 3782.6 800.8C3768.6 818.067 3752.27 831.133 3733.6 840C3715.4 849.333 3694.4 854 3670.6 854Z" fill="white"/>
<path d="M1304.2 690.2L1303.8 691.118L1303.81 691.12L1304.2 690.2ZM1231.4 639.8L1230.66 640.475L1230.67 640.483L1230.68 640.491L1231.4 639.8ZM1187.3 563.5L1186.9 562.583L1186.07 562.943L1186.35 563.807L1187.3 563.5ZM1266.4 529.2L1267.32 528.811L1266.93 527.881L1266 528.283L1266.4 529.2ZM1321 599.9L1320.41 600.709L1320.42 600.717L1321 599.9ZM1444.9 617.4L1445.29 618.321L1445.3 618.317L1445.31 618.314L1444.9 617.4ZM1473.6 595L1472.8 594.4L1472.79 594.413L1472.78 594.427L1473.6 595ZM1470.1 523.6L1469.34 524.254L1469.36 524.272L1469.38 524.29L1470.1 523.6ZM1429.5 499.8L1429.19 500.752L1429.21 500.756L1429.5 499.8ZM1329.4 467.6L1329.71 466.648L1329.7 466.645L1329.4 467.6ZM1237.7 410.9L1238.48 410.268V410.268L1237.7 410.9ZM1228.6 242.9L1227.76 242.353L1227.76 242.359L1227.75 242.365L1228.6 242.9ZM1290.2 189.7L1290.63 190.601L1290.64 190.598L1290.2 189.7ZM1467.3 186.9L1466.91 187.819L1466.91 187.822L1466.92 187.825L1467.3 186.9ZM1534.5 232.4L1533.78 233.09L1533.78 233.098L1533.79 233.107L1534.5 232.4ZM1577.2 300.3L1577.61 301.213L1578.45 300.836L1578.14 299.964L1577.2 300.3ZM1498.8 335.3L1497.87 335.666L1498.25 336.64L1499.21 336.213L1498.8 335.3ZM1452.6 275.1L1452.02 275.917L1452.03 275.922L1452.04 275.926L1452.6 275.1ZM1339.2 261.8L1339.59 262.721L1339.6 262.715L1339.62 262.708L1339.2 261.8ZM1310.5 284.2L1309.69 283.619L1309.68 283.626L1310.5 284.2ZM1314.7 356.3L1313.93 356.94L1313.94 356.948L1313.95 356.956L1314.7 356.3ZM1357.4 381.5L1357.1 382.453L1357.1 382.454L1357.4 381.5ZM1453.3 411.6L1453.61 410.649L1453.6 410.646L1453.3 411.6ZM1546.4 467.6L1545.64 468.253L1545.65 468.262L1546.4 467.6ZM1554.8 634.9L1555.63 635.459V635.459L1554.8 634.9ZM1491.1 688.8L1491.53 689.701V689.701L1491.1 688.8ZM1396.6 708.4V707.4C1363.59 707.4 1332.93 701.357 1304.59 689.28L1304.2 690.2L1303.81 691.12C1332.41 703.31 1363.34 709.4 1396.6 709.4V708.4ZM1304.2 690.2L1304.6 689.282C1276.72 677.201 1252.56 660.476 1232.12 639.109L1231.4 639.8L1230.68 640.491C1251.31 662.057 1275.68 678.933 1303.8 691.118L1304.2 690.2ZM1231.4 639.8L1232.14 639.125C1212.17 617.3 1197.54 591.993 1188.25 563.193L1187.3 563.5L1186.35 563.807C1195.72 592.874 1210.5 618.433 1230.66 640.475L1231.4 639.8ZM1187.3 563.5L1187.7 564.417L1266.8 530.117L1266.4 529.2L1266 528.283L1186.9 562.583L1187.3 563.5ZM1266.4 529.2L1265.48 529.589C1278.14 559.606 1296.45 583.325 1320.41 600.709L1321 599.9L1321.59 599.091C1297.95 581.942 1279.86 558.528 1267.32 528.811L1266.4 529.2ZM1321 599.9L1320.42 600.717C1344.4 617.639 1371.43 626.1 1401.5 626.1V625.1V624.1C1371.83 624.1 1345.2 615.761 1321.58 599.083L1321 599.9ZM1401.5 625.1V626.1C1418.4 626.1 1433 623.519 1445.29 618.321L1444.9 617.4L1444.51 616.479C1432.53 621.548 1418.2 624.1 1401.5 624.1V625.1ZM1444.9 617.4L1445.31 618.314C1458.04 612.656 1467.76 605.084 1474.42 595.573L1473.6 595L1472.78 594.427C1466.37 603.582 1456.96 610.944 1444.49 616.486L1444.9 617.4ZM1473.6 595L1474.4 595.6C1481.55 586.073 1485.1 574.656 1485.1 561.4H1484.1H1483.1C1483.1 574.278 1479.65 585.26 1472.8 594.4L1473.6 595ZM1484.1 561.4H1485.1C1485.1 545.781 1480.36 532.922 1470.82 522.91L1470.1 523.6L1469.38 524.29C1478.51 533.878 1483.1 546.219 1483.1 561.4H1484.1ZM1470.1 523.6L1470.86 522.946C1461.83 512.491 1448.1 504.478 1429.79 498.844L1429.5 499.8L1429.21 500.756C1447.3 506.322 1460.64 514.176 1469.34 524.254L1470.1 523.6ZM1429.5 499.8L1429.81 498.848L1329.71 466.648L1329.4 467.6L1329.09 468.552L1429.19 500.752L1429.5 499.8ZM1329.4 467.6L1329.7 466.645C1289.23 454.086 1258.85 435.275 1238.48 410.268L1237.7 410.9L1236.92 411.532C1257.62 436.925 1288.37 455.914 1329.1 468.555L1329.4 467.6ZM1237.7 410.9L1238.48 410.268C1218.09 385.256 1207.9 355.848 1207.9 322H1206.9H1205.9C1205.9 356.285 1216.24 386.144 1236.92 411.532L1237.7 410.9ZM1206.9 322H1207.9C1207.9 292.302 1215.09 266.125 1229.45 243.435L1228.6 242.9L1227.75 242.365C1213.18 265.408 1205.9 291.964 1205.9 322H1206.9ZM1228.6 242.9L1229.44 243.447C1244.26 220.742 1264.65 203.127 1290.63 190.601L1290.2 189.7L1289.77 188.799C1263.48 201.473 1242.8 219.324 1227.76 242.353L1228.6 242.9ZM1290.2 189.7L1290.64 190.598C1317.08 177.608 1347.26 171.1 1381.2 171.1V170.1V169.1C1347 169.1 1316.52 175.659 1289.76 188.802L1290.2 189.7ZM1381.2 170.1V171.1C1412.34 171.1 1440.91 176.678 1466.91 187.819L1467.3 186.9L1467.69 185.981C1441.42 174.722 1412.59 169.1 1381.2 169.1V170.1ZM1467.3 186.9L1466.92 187.825C1492.93 198.507 1515.21 213.596 1533.78 233.09L1534.5 232.4L1535.22 231.71C1516.46 212.004 1493.94 196.759 1467.68 185.975L1467.3 186.9ZM1534.5 232.4L1533.79 233.107C1552.82 252.133 1566.97 274.639 1576.26 300.636L1577.2 300.3L1578.14 299.964C1568.76 273.695 1554.45 250.934 1535.21 231.693L1534.5 232.4ZM1577.2 300.3L1576.79 299.387L1498.39 334.387L1498.8 335.3L1499.21 336.213L1577.61 301.213L1577.2 300.3ZM1498.8 335.3L1499.73 334.934C1489.4 308.639 1473.88 288.401 1453.16 274.274L1452.6 275.1L1452.04 275.926C1472.38 289.799 1487.67 309.694 1497.87 335.666L1498.8 335.3ZM1452.6 275.1L1453.18 274.282C1432.46 259.688 1408.46 252.4 1381.2 252.4V253.4V254.4C1408.08 254.4 1431.67 261.579 1452.02 275.917L1452.6 275.1ZM1381.2 253.4V252.4C1365.22 252.4 1351.07 255.221 1338.78 260.892L1339.2 261.8L1339.62 262.708C1351.6 257.179 1365.45 254.4 1381.2 254.4V253.4ZM1339.2 261.8L1338.81 260.879C1326.52 266.077 1316.8 273.655 1309.69 283.619L1310.5 284.2L1311.31 284.781C1318.2 275.145 1327.61 267.789 1339.59 262.721L1339.2 261.8ZM1310.5 284.2L1309.68 283.626C1303.01 293.152 1299.7 304.559 1299.7 317.8H1300.7H1301.7C1301.7 304.907 1304.92 293.915 1311.32 284.773L1310.5 284.2ZM1300.7 317.8H1299.7C1299.7 332.503 1304.45 345.562 1313.93 356.94L1314.7 356.3L1315.47 355.66C1306.28 344.638 1301.7 332.031 1301.7 317.8H1300.7ZM1314.7 356.3L1313.95 356.956C1323.44 367.874 1337.86 376.353 1357.1 382.453L1357.4 381.5L1357.7 380.547C1338.68 374.514 1324.63 366.193 1315.45 355.644L1314.7 356.3ZM1357.4 381.5L1357.1 382.454L1453 412.554L1453.3 411.6L1453.6 410.646L1357.7 380.546L1357.4 381.5ZM1453.3 411.6L1452.99 412.551C1494.41 426.049 1525.27 444.635 1545.64 468.253L1546.4 467.6L1547.16 466.947C1526.47 442.965 1495.25 424.218 1453.61 410.649L1453.3 411.6ZM1546.4 467.6L1545.65 468.262C1566.47 491.86 1576.9 521.017 1576.9 555.8H1577.9H1578.9C1578.9 520.583 1568.33 490.94 1547.15 466.938L1546.4 467.6ZM1577.9 555.8H1576.9C1576.9 585.485 1569.25 611.654 1553.97 634.341L1554.8 634.9L1555.63 635.459C1571.15 612.413 1578.9 585.848 1578.9 555.8H1577.9ZM1554.8 634.9L1553.97 634.341C1538.68 657.048 1517.59 674.903 1490.67 687.899L1491.1 688.8L1491.53 689.701C1518.75 676.564 1540.12 658.485 1555.63 635.459L1554.8 634.9ZM1491.1 688.8L1490.67 687.899C1463.76 700.889 1432.41 707.4 1396.6 707.4V708.4V709.4C1432.65 709.4 1464.31 702.844 1491.53 689.701L1491.1 688.8ZM1620.92 840H1619.92V841H1620.92V840ZM1620.92 319.2V318.2H1619.92V319.2H1620.92ZM1707.02 319.2H1708.02V318.2H1707.02V319.2ZM1707.02 394.8L1706.11 395.206L1708.02 394.8H1707.02ZM1698.62 375.9L1697.78 375.363L1697.49 375.816L1697.71 376.306L1698.62 375.9ZM1751.82 328.3L1752.27 329.194L1752.28 329.191L1752.28 329.187L1751.82 328.3ZM1926.82 337.4L1926.3 338.253V338.253L1926.82 337.4ZM1995.42 408.8L1994.55 409.29L1994.56 409.301L1995.42 408.8ZM1996.12 610.4L1995.25 609.915V609.915L1996.12 610.4ZM1927.52 682.5L1928.04 683.359L1928.05 683.353L1927.52 682.5ZM1752.52 692.3L1752.08 693.198L1752.09 693.203L1752.1 693.208L1752.52 692.3ZM1697.92 644.7L1697.14 644.072L1696.69 644.64L1697.09 645.25L1697.92 644.7ZM1712.62 626.5H1713.62V623.67L1711.84 625.872L1712.62 626.5ZM1712.62 840V841H1713.62V840H1712.62ZM1874.32 609.7L1873.81 608.842V608.842L1874.32 609.7ZM1912.12 569.1L1911.24 568.624L1911.24 568.634L1911.23 568.643L1912.12 569.1ZM1912.12 450.8L1911.23 451.257L1911.24 451.271L1911.25 451.286L1912.12 450.8ZM1874.32 410.2L1873.79 411.047L1873.8 411.052L1873.81 411.057L1874.32 410.2ZM1763.72 409.5L1763.21 408.642L1763.2 408.649L1763.72 409.5ZM1725.92 450.8L1725.04 450.334L1725.03 450.343L1725.92 450.8ZM1725.92 569.1L1725.03 569.557L1725.04 569.566L1725.04 569.576L1725.92 569.1ZM1763.72 609.7L1763.2 610.551L1763.21 610.557L1763.72 609.7ZM1620.92 840H1621.92V319.2H1620.92H1619.92V840H1620.92ZM1620.92 319.2V320.2H1707.02V319.2V318.2H1620.92V319.2ZM1707.02 319.2H1706.02V394.8H1707.02H1708.02V319.2H1707.02ZM1707.02 394.8L1707.94 394.394L1699.54 375.494L1698.62 375.9L1697.71 376.306L1706.11 395.206L1707.02 394.8ZM1698.62 375.9L1699.47 376.437C1712.43 356.061 1730.03 340.316 1752.27 329.194L1751.82 328.3L1751.38 327.406C1728.82 338.684 1710.95 354.672 1697.78 375.363L1698.62 375.9ZM1751.82 328.3L1752.28 329.187C1774.52 317.606 1800.26 311.8 1829.52 311.8V310.8V309.8C1799.99 309.8 1773.93 315.661 1751.36 327.413L1751.82 328.3ZM1829.52 310.8V311.8C1865.28 311.8 1897.53 320.621 1926.3 338.253L1926.82 337.4L1927.35 336.547C1898.25 318.712 1865.63 309.8 1829.52 309.8V310.8ZM1926.82 337.4L1926.3 338.253C1955.09 355.896 1977.83 379.571 1994.55 409.29L1995.42 408.8L1996.29 408.31C1979.41 378.296 1956.43 354.371 1927.35 336.547L1926.82 337.4ZM1995.42 408.8L1994.56 409.301C2011.73 439.003 2020.32 472.427 2020.32 509.6H2021.32H2022.32C2022.32 472.106 2013.65 438.331 1996.29 408.299L1995.42 408.8ZM2021.32 509.6H2020.32C2020.32 546.308 2011.96 579.74 1995.25 609.915L1996.12 610.4L1997 610.884C2013.88 580.393 2022.32 546.625 2022.32 509.6H2021.32ZM1996.12 610.4L1995.25 609.915C1978.53 640.101 1955.78 664.006 1927 681.647L1927.52 682.5L1928.05 683.353C1957.13 665.527 1980.12 641.365 1997 610.884L1996.12 610.4ZM1927.52 682.5L1927.01 681.641C1898.25 698.807 1865.53 707.4 1828.82 707.4V708.4V709.4C1865.85 709.4 1898.93 700.726 1928.04 683.359L1927.52 682.5ZM1828.82 708.4V707.4C1801.42 707.4 1776.13 702.06 1752.94 691.392L1752.52 692.3L1752.1 693.208C1775.58 704.006 1801.16 709.4 1828.82 709.4V708.4ZM1752.52 692.3L1752.96 691.402C1730.25 680.278 1712.19 664.528 1698.76 644.15L1697.92 644.7L1697.09 645.25C1710.72 665.938 1729.06 681.922 1752.08 693.198L1752.52 692.3ZM1697.92 644.7L1698.7 645.328L1713.4 627.128L1712.62 626.5L1711.84 625.872L1697.14 644.072L1697.92 644.7ZM1712.62 626.5H1711.62V840H1712.62H1713.62V626.5H1712.62ZM1712.62 840V839H1620.92V840V841H1712.62V840ZM1818.32 624.4V625.4C1839.48 625.4 1858.33 620.46 1874.84 610.557L1874.32 609.7L1873.81 608.842C1857.65 618.54 1839.16 623.4 1818.32 623.4V624.4ZM1874.32 609.7L1874.84 610.557C1891.33 600.66 1904.06 586.986 1913.01 569.557L1912.12 569.1L1911.23 568.643C1902.45 585.747 1889.98 599.14 1873.81 608.842L1874.32 609.7ZM1912.12 569.1L1913 569.576C1922.43 552.143 1927.12 532.142 1927.12 509.6H1926.12H1925.12C1925.12 531.858 1920.49 551.523 1911.24 568.624L1912.12 569.1ZM1926.12 509.6H1927.12C1927.12 487.058 1922.43 467.286 1913 450.314L1912.12 450.8L1911.25 451.286C1920.49 467.914 1925.12 487.342 1925.12 509.6H1926.12ZM1912.12 450.8L1913.01 450.343C1904.06 432.914 1891.33 419.24 1874.84 409.342L1874.32 410.2L1873.81 411.057C1889.98 420.76 1902.45 434.153 1911.23 451.257L1912.12 450.8ZM1874.32 410.2L1874.85 409.353C1858.35 398.978 1839.49 393.8 1818.32 393.8V394.8V395.8C1839.15 395.8 1857.63 400.889 1873.79 411.047L1874.32 410.2ZM1818.32 394.8V393.8C1798.08 393.8 1779.71 398.744 1763.21 408.642L1763.72 409.5L1764.24 410.357C1780.41 400.656 1798.43 395.8 1818.32 395.8V394.8ZM1763.72 409.5L1763.2 408.649C1747.17 418.55 1734.45 432.455 1725.04 450.334L1725.92 450.8L1726.81 451.266C1736.06 433.678 1748.54 420.05 1764.25 410.351L1763.72 409.5ZM1725.92 450.8L1725.03 450.343C1716.08 467.769 1711.62 487.529 1711.62 509.6H1712.62H1713.62C1713.62 487.805 1718.03 468.365 1726.81 451.257L1725.92 450.8ZM1712.62 509.6H1711.62C1711.62 532.134 1716.08 552.128 1725.03 569.557L1725.92 569.1L1726.81 568.643C1718.03 551.538 1713.62 531.866 1713.62 509.6H1712.62ZM1725.92 569.1L1725.04 569.576C1734.45 586.988 1747.17 600.654 1763.2 610.551L1763.72 609.7L1764.25 608.849C1748.54 599.146 1736.06 585.746 1726.8 568.624L1725.92 569.1ZM1763.72 609.7L1763.21 610.557C1779.71 620.456 1798.08 625.4 1818.32 625.4V624.4V623.4C1798.43 623.4 1780.41 618.544 1764.24 608.842L1763.72 609.7ZM2056.24 700H2055.24V701H2056.24V700ZM2056.24 319.2V318.2H2055.24V319.2H2056.24ZM2142.34 319.2H2143.34V318.2H2142.34V319.2ZM2142.34 403.9L2141.46 404.386L2143.34 407.759V403.9H2142.34ZM2135.34 391.3L2134.38 391.003L2134.25 391.411L2134.46 391.786L2135.34 391.3ZM2176.64 331.8L2176.13 330.937L2176.12 330.943L2176.64 331.8ZM2267.64 315H2268.64V314H2267.64V315ZM2267.64 396.2V397.2H2268.64V396.2H2267.64ZM2171.74 420.7L2172.44 421.407L2172.45 421.402L2172.45 421.397L2171.74 420.7ZM2147.94 700V701H2148.94V700H2147.94ZM2056.24 700H2057.24V319.2H2056.24H2055.24V700H2056.24ZM2056.24 319.2V320.2H2142.34V319.2V318.2H2056.24V319.2ZM2142.34 319.2H2141.34V403.9H2142.34H2143.34V319.2H2142.34ZM2142.34 403.9L2143.21 403.414L2136.21 390.814L2135.34 391.3L2134.46 391.786L2141.46 404.386L2142.34 403.9ZM2135.34 391.3L2136.29 391.597C2145.11 363.278 2158.76 343.691 2177.15 332.657L2176.64 331.8L2176.12 330.943C2157.18 342.309 2143.29 362.389 2134.38 391.003L2135.34 391.3ZM2176.64 331.8L2177.14 332.663C2196.09 321.569 2218.78 316 2245.24 316V315V314C2218.49 314 2195.44 319.631 2176.13 330.937L2176.64 331.8ZM2245.24 315V316H2267.64V315V314H2245.24V315ZM2267.64 315H2266.64V396.2H2267.64H2268.64V315H2267.64ZM2267.64 396.2V395.2H2234.74V396.2V397.2H2267.64V396.2ZM2234.74 396.2V395.2C2208.38 395.2 2187.1 403.447 2171.02 420.003L2171.74 420.7L2172.45 421.397C2188.1 405.286 2208.83 397.2 2234.74 397.2V396.2ZM2171.74 420.7L2171.03 419.993C2154.92 436.097 2146.94 458.782 2146.94 487.9H2147.94H2148.94C2148.94 459.152 2156.81 437.036 2172.44 421.407L2171.74 420.7ZM2147.94 487.9H2146.94V700H2147.94H2148.94V487.9H2147.94ZM2147.94 700V699H2056.24V700V701H2147.94V700ZM2329.25 695.1L2328.84 696.011V696.011L2329.25 695.1ZM2283.75 657.3L2282.91 657.838L2282.92 657.849L2283.75 657.3ZM2281.65 543.2L2282.52 543.696L2282.53 543.686L2281.65 543.2ZM2325.05 501.2L2325.55 502.068V502.068L2325.05 501.2ZM2399.25 477.4L2399.41 478.388L2399.41 478.387L2399.25 477.4ZM2523.85 457.1H2524.85V455.924L2523.69 456.113L2523.85 457.1ZM2523.85 527.1L2524.02 528.086L2524.85 527.944V527.1H2523.85ZM2416.75 545.3L2416.58 544.314L2416.57 544.316L2416.75 545.3ZM2376.15 562.8L2375.46 562.074V562.074L2376.15 562.8ZM2377.55 627.2L2376.92 627.977L2376.94 627.994L2376.96 628.009L2377.55 627.2ZM2465.75 626.5L2466.23 627.377L2466.24 627.372L2465.75 626.5ZM2500.05 592.2L2499.19 591.698L2499.18 591.708L2499.17 591.719L2500.05 592.2ZM2493.05 406L2492.39 406.747L2492.4 406.76L2492.42 406.773L2493.05 406ZM2390.15 405.3L2390.72 406.124L2390.72 406.12L2390.15 405.3ZM2357.25 446.6L2356.81 447.499L2357.78 447.967L2358.18 446.976L2357.25 446.6ZM2282.35 410.2L2281.41 409.851L2281.1 410.702L2281.91 411.099L2282.35 410.2ZM2317.35 358.4L2318.03 359.139L2318.03 359.138L2317.35 358.4ZM2374.75 323.4L2374.39 322.466V322.466L2374.75 323.4ZM2528.75 328.3L2528.31 329.198L2528.32 329.201L2528.33 329.205L2528.75 328.3ZM2584.05 375.9L2583.21 376.437L2583.22 376.448L2583.22 376.459L2584.05 375.9ZM2604.35 700V701H2605.35V700H2604.35ZM2517.55 700H2516.55V701H2517.55V700ZM2517.55 634.9L2517.48 633.903L2516.55 633.969V634.9H2517.55ZM2537.15 633.5L2538.01 634.014L2539 632.366L2537.08 632.503L2537.15 633.5ZM2502.15 674.8L2502.77 675.583L2502.78 675.577L2502.79 675.57L2502.15 674.8ZM2455.95 700L2456.26 700.951L2456.27 700.947L2456.28 700.943L2455.95 700ZM2398.55 708.4V707.4C2372.06 707.4 2349.11 702.985 2329.66 694.189L2329.25 695.1L2328.84 696.011C2348.6 704.949 2371.84 709.4 2398.55 709.4V708.4ZM2329.25 695.1L2329.66 694.189C2310.22 685.392 2295.21 672.91 2284.59 656.751L2283.75 657.3L2282.92 657.849C2293.76 674.357 2309.08 687.074 2328.84 696.011L2329.25 695.1ZM2283.75 657.3L2284.59 656.762C2273.97 640.138 2268.65 620.962 2268.65 599.2H2267.65H2266.65C2266.65 621.304 2272.06 640.862 2282.91 657.838L2283.75 657.3ZM2267.65 599.2H2268.65C2268.65 578.353 2273.28 559.861 2282.52 543.696L2281.65 543.2L2280.78 542.704C2271.35 559.205 2266.65 578.047 2266.65 599.2H2267.65ZM2281.65 543.2L2282.53 543.686C2291.76 527.071 2306.08 513.194 2325.55 502.068L2325.05 501.2L2324.56 500.332C2304.82 511.606 2290.21 525.729 2280.78 542.714L2281.65 543.2ZM2325.05 501.2L2325.55 502.068C2345.01 490.945 2369.62 483.042 2399.41 478.388L2399.25 477.4L2399.1 476.412C2369.15 481.091 2344.29 489.055 2324.56 500.332L2325.05 501.2ZM2399.25 477.4L2399.41 478.387L2524.01 458.087L2523.85 457.1L2523.69 456.113L2399.09 476.413L2399.25 477.4ZM2523.85 457.1H2522.85V527.1H2523.85H2524.85V457.1H2523.85ZM2523.85 527.1L2523.68 526.114L2416.58 544.314L2416.75 545.3L2416.92 546.286L2524.02 528.086L2523.85 527.1ZM2416.75 545.3L2416.57 544.316C2398.28 547.6 2384.53 553.488 2375.46 562.074L2376.15 562.8L2376.84 563.526C2385.51 555.312 2398.83 549.533 2416.93 546.284L2416.75 545.3ZM2376.15 562.8L2375.46 562.074C2366.38 570.684 2361.85 581.925 2361.85 595.7H2362.85H2363.85C2363.85 582.408 2368.19 571.716 2376.84 563.526L2376.15 562.8ZM2362.85 595.7H2361.85C2361.85 609.056 2366.88 619.846 2376.92 627.977L2377.55 627.2L2378.18 626.423C2368.62 618.687 2363.85 608.478 2363.85 595.7H2362.85ZM2377.55 627.2L2376.96 628.009C2387.43 635.621 2400.25 639.4 2415.35 639.4V638.4V637.4C2400.59 637.4 2388.21 633.713 2378.14 626.391L2377.55 627.2ZM2415.35 638.4V639.4C2434.63 639.4 2451.6 635.403 2466.23 627.377L2465.75 626.5L2465.27 625.623C2450.97 633.464 2434.34 637.4 2415.35 637.4V638.4ZM2465.75 626.5L2466.24 627.372C2481.33 618.884 2492.9 607.318 2500.93 592.681L2500.05 592.2L2499.17 591.719C2491.33 606.016 2480.04 617.316 2465.26 625.628L2465.75 626.5ZM2500.05 592.2L2500.92 592.702C2509.41 578.078 2513.65 562.037 2513.65 544.6H2512.65H2511.65C2511.65 561.696 2507.5 577.389 2499.19 591.698L2500.05 592.2ZM2512.65 544.6H2513.65V446.6H2512.65H2511.65V544.6H2512.65ZM2512.65 446.6H2513.65C2513.65 429.955 2506.97 416.143 2493.69 405.227L2493.05 406L2492.42 406.773C2505.26 417.324 2511.65 430.578 2511.65 446.6H2512.65ZM2493.05 406L2493.72 405.253C2480.89 393.853 2463.83 388.2 2442.65 388.2V389.2V390.2C2463.47 390.2 2480.01 395.747 2492.39 406.747L2493.05 406ZM2442.65 389.2V388.2C2422.86 388.2 2405.16 393.624 2389.58 404.48L2390.15 405.3L2390.72 406.12C2405.95 395.509 2423.25 390.2 2442.65 390.2V389.2ZM2390.15 405.3L2389.59 404.476C2374.49 414.857 2363.4 428.782 2356.32 446.224L2357.25 446.6L2358.18 446.976C2365.11 429.885 2375.95 416.276 2390.72 406.124L2390.15 405.3ZM2357.25 446.6L2357.69 445.701L2282.79 409.301L2282.35 410.2L2281.91 411.099L2356.81 447.499L2357.25 446.6ZM2282.35 410.2L2283.29 410.549C2290.7 390.632 2302.28 373.499 2318.03 359.139L2317.35 358.4L2316.68 357.661C2300.69 372.235 2288.94 389.635 2281.41 409.851L2282.35 410.2ZM2317.35 358.4L2318.03 359.138C2334.26 344.294 2353.29 332.692 2375.11 324.334L2374.75 323.4L2374.39 322.466C2352.35 330.908 2333.11 342.639 2316.68 357.662L2317.35 358.4ZM2374.75 323.4L2375.11 324.334C2396.92 315.981 2420.6 311.8 2446.15 311.8V310.8V309.8C2420.37 309.8 2396.45 314.018 2374.39 322.466L2374.75 323.4ZM2446.15 310.8V311.8C2477.29 311.8 2504.67 317.609 2528.31 329.198L2528.75 328.3L2529.19 327.402C2505.23 315.657 2477.54 309.8 2446.15 309.8V310.8ZM2528.75 328.3L2528.33 329.205C2551.97 340.331 2570.25 356.076 2583.21 376.437L2584.05 375.9L2584.9 375.363C2571.72 354.657 2553.13 338.669 2529.18 327.395L2528.75 328.3ZM2584.05 375.9L2583.22 376.459C2596.63 396.341 2603.35 419.708 2603.35 446.6H2604.35H2605.35C2605.35 419.359 2598.54 395.592 2584.88 375.341L2584.05 375.9ZM2604.35 446.6H2603.35V700H2604.35H2605.35V446.6H2604.35ZM2604.35 700V699H2517.55V700V701H2604.35V700ZM2517.55 700H2518.55V634.9H2517.55H2516.55V700H2517.55ZM2517.55 634.9L2517.62 635.897L2537.22 634.497L2537.15 633.5L2537.08 632.503L2517.48 633.903L2517.55 634.9ZM2537.15 633.5L2536.29 632.986C2526.55 649.23 2514.95 662.908 2501.51 674.03L2502.15 674.8L2502.79 675.57C2516.42 664.292 2528.16 650.437 2538.01 634.014L2537.15 633.5ZM2502.15 674.8L2501.53 674.017C2488.09 684.677 2472.79 693.025 2455.62 699.057L2455.95 700L2456.28 700.943C2473.65 694.842 2489.15 686.39 2502.77 675.583L2502.15 674.8ZM2455.95 700L2455.64 699.049C2438.49 704.612 2419.46 707.4 2398.55 707.4V708.4V709.4C2419.64 709.4 2438.88 706.588 2456.26 700.951L2455.95 700ZM2732.51 682.5L2731.98 683.353L2731.99 683.359L2732.51 682.5ZM2663.91 610.4L2664.78 609.915L2663.91 610.4ZM2663.91 408.8L2664.78 409.29V409.29L2663.91 408.8ZM2732.51 337.4L2731.99 336.544L2731.98 336.547L2732.51 337.4ZM2907.51 328.3L2907.04 329.187L2907.06 329.193L2907.07 329.198L2907.51 328.3ZM2961.41 375.9L2962.21 376.495L2962.62 375.943L2962.25 375.363L2961.41 375.9ZM2947.41 394.8H2946.41V397.83L2948.21 395.395L2947.41 394.8ZM2947.41 170.1V169.1H2946.41V170.1H2947.41ZM3039.11 170.1H3040.11V169.1H3039.11V170.1ZM3039.11 700V701H3040.11V700H3039.11ZM2952.31 700H2951.31V701H2952.31V700ZM2952.31 626.5L2953.19 626.026L2951.31 626.5H2952.31ZM2962.11 644.7L2962.95 645.237L2963.26 644.742L2962.99 644.226L2962.11 644.7ZM2907.51 692.3L2907.92 693.208L2907.93 693.205L2907.94 693.202L2907.51 692.3ZM2896.31 609.7L2895.78 608.849V608.849L2896.31 609.7ZM2933.41 569.1L2932.53 568.624L2932.52 568.634L2932.52 568.643L2933.41 569.1ZM2933.41 450.8L2932.51 451.247L2932.52 451.261L2932.53 451.276L2933.41 450.8ZM2896.31 409.5L2895.78 410.351V410.351L2896.31 409.5ZM2785.71 410.2L2786.22 411.057L2786.23 411.052L2786.24 411.047L2785.71 410.2ZM2747.21 450.8L2746.33 450.324L2746.32 450.333L2747.21 450.8ZM2747.21 569.1L2746.32 569.557L2746.32 569.566L2746.33 569.576L2747.21 569.1ZM2785.71 609.7L2786.22 608.842V608.842L2785.71 609.7ZM2831.21 708.4V707.4C2794.5 707.4 2761.78 698.807 2733.02 681.641L2732.51 682.5L2731.99 683.359C2761.1 700.726 2794.18 709.4 2831.21 709.4V708.4ZM2732.51 682.5L2733.03 681.647C2704.25 664.006 2681.5 640.101 2664.78 609.915L2663.91 610.4L2663.03 610.884C2679.91 641.365 2702.9 665.527 2731.98 683.353L2732.51 682.5ZM2663.91 610.4L2664.78 609.915C2648.07 579.74 2639.71 546.308 2639.71 509.6H2638.71H2637.71C2637.71 546.625 2646.14 580.393 2663.03 610.884L2663.91 610.4ZM2638.71 509.6H2639.71C2639.71 472.423 2648.07 438.994 2664.78 409.29L2663.91 408.8L2663.03 408.31C2646.14 438.339 2637.71 472.111 2637.71 509.6H2638.71ZM2663.91 408.8L2664.78 409.29C2681.5 379.571 2704.24 355.896 2733.03 338.253L2732.51 337.4L2731.98 336.547C2702.9 354.371 2679.92 378.296 2663.03 408.31L2663.91 408.8ZM2732.51 337.4L2733.02 338.256C2762.26 320.621 2794.75 311.8 2830.51 311.8V310.8V309.8C2794.4 309.8 2761.55 318.712 2731.99 336.544L2732.51 337.4ZM2830.51 310.8V311.8C2859.3 311.8 2884.81 317.605 2907.04 329.187L2907.51 328.3L2907.97 327.413C2885.41 315.662 2859.58 309.8 2830.51 309.8V310.8ZM2907.51 328.3L2907.07 329.198C2929.78 340.321 2947.6 356.066 2960.56 376.437L2961.41 375.9L2962.25 375.363C2949.08 354.667 2930.97 338.679 2907.95 327.402L2907.51 328.3ZM2961.41 375.9L2960.6 375.305L2946.6 394.205L2947.41 394.8L2948.21 395.395L2962.21 376.495L2961.41 375.9ZM2947.41 394.8H2948.41V170.1H2947.41H2946.41V394.8H2947.41ZM2947.41 170.1V171.1H3039.11V170.1V169.1H2947.41V170.1ZM3039.11 170.1H3038.11V700H3039.11H3040.11V170.1H3039.11ZM3039.11 700V699H2952.31V700V701H3039.11V700ZM2952.31 700H2953.31V626.5H2952.31H2951.31V700H2952.31ZM2952.31 626.5L2951.43 626.974L2961.23 645.174L2962.11 644.7L2962.99 644.226L2953.19 626.026L2952.31 626.5ZM2962.11 644.7L2961.26 644.163C2948.3 664.529 2930.25 680.274 2907.07 691.398L2907.51 692.3L2907.94 693.202C2931.43 681.926 2949.78 665.938 2962.95 645.237L2962.11 644.7ZM2907.51 692.3L2907.09 691.392C2883.9 702.06 2858.61 707.4 2831.21 707.4V708.4V709.4C2858.87 709.4 2884.45 704.006 2907.92 693.208L2907.51 692.3ZM2841.01 624.4V625.4C2862.17 625.4 2880.79 620.46 2896.83 610.551L2896.31 609.7L2895.78 608.849C2880.09 618.54 2861.84 623.4 2841.01 623.4V624.4ZM2896.31 609.7L2896.83 610.551C2912.86 600.651 2925.35 586.979 2934.3 569.557L2933.41 569.1L2932.52 568.643C2923.73 585.755 2911.49 599.149 2895.78 608.849L2896.31 609.7ZM2933.41 569.1L2934.29 569.576C2943.71 552.143 2948.41 532.142 2948.41 509.6H2947.41H2946.41C2946.41 531.858 2941.77 551.523 2932.53 568.624L2933.41 569.1ZM2947.41 509.6H2948.41C2948.41 487.52 2943.71 467.754 2934.29 450.324L2933.41 450.8L2932.53 451.276C2941.77 468.38 2946.41 487.813 2946.41 509.6H2947.41ZM2933.41 450.8L2934.3 450.353C2925.36 432.464 2912.87 418.553 2896.83 408.649L2896.31 409.5L2895.78 410.351C2911.48 420.047 2923.72 433.669 2932.51 451.247L2933.41 450.8ZM2896.31 409.5L2896.83 408.649C2880.79 398.74 2862.17 393.8 2841.01 393.8V394.8V395.8C2861.84 395.8 2880.09 400.66 2895.78 410.351L2896.31 409.5ZM2841.01 394.8V393.8C2820.3 393.8 2801.68 398.98 2785.17 409.353L2785.71 410.2L2786.24 411.047C2802.4 400.887 2820.65 395.8 2841.01 395.8V394.8ZM2785.71 410.2L2785.19 409.342C2768.7 419.238 2755.74 432.905 2746.33 450.324L2747.21 450.8L2748.09 451.276C2757.34 434.162 2770.05 420.762 2786.22 411.057L2785.71 410.2ZM2747.21 450.8L2746.32 450.333C2737.37 467.301 2732.91 487.066 2732.91 509.6H2733.91H2734.91C2734.91 487.334 2739.31 467.899 2748.09 451.267L2747.21 450.8ZM2733.91 509.6H2732.91C2732.91 532.134 2737.37 552.128 2746.32 569.557L2747.21 569.1L2748.1 568.643C2739.31 551.538 2734.91 531.866 2734.91 509.6H2733.91ZM2747.21 569.1L2746.33 569.576C2755.74 586.995 2768.7 600.662 2785.19 610.557L2785.71 609.7L2786.22 608.842C2770.05 599.138 2757.34 585.738 2748.09 568.624L2747.21 569.1ZM2785.71 609.7L2785.19 610.557C2801.69 620.458 2820.31 625.4 2841.01 625.4V624.4V623.4C2820.64 623.4 2802.39 618.542 2786.22 608.842L2785.71 609.7ZM3089.42 700H3088.42V701H3089.42V700ZM3089.42 170.1V169.1H3088.42V170.1H3089.42ZM3181.12 170.1H3182.12V169.1H3181.12V170.1ZM3181.12 700V701H3182.12V700H3181.12ZM3089.42 700H3090.42V170.1H3089.42H3088.42V700H3089.42ZM3089.42 170.1V171.1H3181.12V170.1V169.1H3089.42V170.1ZM3181.12 170.1H3180.12V700H3181.12H3182.12V170.1H3181.12ZM3181.12 700V699H3089.42V700V701H3181.12V700ZM3308.49 681.8L3307.97 682.656V682.656L3308.49 681.8ZM3239.89 609.7L3240.77 609.226L3239.89 609.7ZM3239.89 407.4L3239.01 406.91L3239.01 406.914L3239.89 407.4ZM3307.79 336.7L3307.27 335.841L3307.27 335.845L3307.79 336.7ZM3482.79 325.5L3482.39 326.416L3482.39 326.419L3482.79 325.5ZM3540.89 366.1L3540.15 366.777V366.777L3540.89 366.1ZM3577.29 425.6L3576.35 425.951L3576.35 425.958L3577.29 425.6ZM3588.49 517.3L3587.49 517.168L3587.49 517.201L3587.49 517.233L3588.49 517.3ZM3584.99 535.5V536.5H3585.69L3585.93 535.842L3584.99 535.5ZM3290.99 535.5H3289.99V536.5H3290.99V535.5ZM3290.99 465.5V464.5H3289.99V465.5H3290.99ZM3533.19 465.5L3533.79 466.297L3536.16 464.5H3533.19V465.5ZM3489.79 498.4L3488.8 498.208L3488.3 500.78L3490.39 499.197L3489.79 498.4ZM3486.29 441L3485.35 441.34L3485.35 441.351L3485.35 441.362L3486.29 441ZM3455.49 401.1L3454.91 401.919L3454.92 401.924L3454.93 401.928L3455.49 401.1ZM3353.29 401.1L3353.82 401.948L3353.83 401.942L3353.83 401.936L3353.29 401.1ZM3318.99 443.1L3318.07 442.709L3318.06 442.72L3318.99 443.1ZM3310.59 509.6L3311.58 509.68L3311.59 509.604L3311.58 509.529L3310.59 509.6ZM3319.69 571.9L3318.77 572.3L3318.78 572.314L3318.78 572.328L3319.69 571.9ZM3356.09 613.2L3355.56 614.051L3355.57 614.057L3356.09 613.2ZM3465.29 614.6L3464.78 613.74L3464.76 613.747L3465.29 614.6ZM3500.29 578.9L3500.73 578.002L3499.88 577.586L3499.41 578.41L3500.29 578.9ZM3574.49 615.3L3575.41 615.68L3575.77 614.814L3574.93 614.402L3574.49 615.3ZM3539.49 663.6L3540.15 664.35V664.35L3539.49 663.6ZM3482.79 696.5L3482.45 695.56L3482.44 695.562L3482.79 696.5ZM3411.39 708.4V707.4C3372.34 707.4 3338.23 698.57 3309 680.944L3308.49 681.8L3307.97 682.656C3337.55 700.496 3372.03 709.4 3411.39 709.4V708.4ZM3308.49 681.8L3309 680.944C3279.76 663.303 3257.02 639.402 3240.77 609.226L3239.89 609.7L3239.01 610.174C3255.42 640.665 3278.42 664.83 3307.97 682.656L3308.49 681.8ZM3239.89 609.7L3240.77 609.226C3224.52 579.048 3216.39 545.613 3216.39 508.9H3215.39H3214.39C3214.39 545.92 3222.59 579.685 3239.01 610.174L3239.89 609.7ZM3215.39 508.9H3216.39C3216.39 470.78 3224.52 437.118 3240.76 407.886L3239.89 407.4L3239.01 406.914C3222.59 436.482 3214.39 470.487 3214.39 508.9H3215.39ZM3239.89 407.4L3240.76 407.89C3257.48 378.169 3279.99 354.73 3308.3 337.555L3307.79 336.7L3307.27 335.845C3278.65 353.204 3255.9 376.898 3239.01 406.91L3239.89 407.4ZM3307.79 336.7L3308.3 337.559C3337.07 320.389 3369.09 311.8 3404.39 311.8V310.8V309.8C3368.75 309.8 3336.37 318.477 3307.27 335.841L3307.79 336.7ZM3404.39 310.8V311.8C3434.14 311.8 3460.14 316.682 3482.39 326.416L3482.79 325.5L3483.19 324.584C3460.64 314.718 3434.36 309.8 3404.39 309.8V310.8ZM3482.79 325.5L3482.39 326.419C3505.14 336.167 3524.38 349.62 3540.15 366.777L3540.89 366.1L3541.62 365.423C3525.65 348.046 3506.17 334.433 3483.18 324.581L3482.79 325.5ZM3540.89 366.1L3540.15 366.777C3555.93 383.947 3567.99 403.669 3576.35 425.951L3577.29 425.6L3578.22 425.249C3569.78 402.731 3557.58 382.787 3541.62 365.423L3540.89 366.1ZM3577.29 425.6L3576.35 425.958C3584.7 447.767 3588.89 471.444 3588.89 497H3589.89H3590.89C3590.89 471.222 3586.67 447.3 3578.22 425.242L3577.29 425.6ZM3589.89 497H3588.89C3588.89 503.486 3588.42 510.208 3587.49 517.168L3588.49 517.3L3589.48 517.432C3590.42 510.392 3590.89 503.581 3590.89 497H3589.89ZM3588.49 517.3L3587.49 517.233C3587.03 524.165 3585.87 530.134 3584.05 535.158L3584.99 535.5L3585.93 535.842C3587.83 530.599 3589.01 524.435 3589.48 517.367L3588.49 517.3ZM3584.99 535.5V534.5H3290.99V535.5V536.5H3584.99V535.5ZM3290.99 535.5H3291.99V465.5H3290.99H3289.99V535.5H3290.99ZM3290.99 465.5V466.5H3533.19V465.5V464.5H3290.99V465.5ZM3533.19 465.5L3532.58 464.703L3489.18 497.603L3489.79 498.4L3490.39 499.197L3533.79 466.297L3533.19 465.5ZM3489.79 498.4L3490.77 498.592C3495 476.979 3493.83 457.648 3487.22 440.638L3486.29 441L3485.35 441.362C3491.81 457.952 3492.98 476.887 3488.8 498.208L3489.79 498.4ZM3486.29 441L3487.23 440.66C3481.09 423.666 3470.69 410.193 3456.05 400.272L3455.49 401.1L3454.93 401.928C3469.21 411.607 3479.35 424.734 3485.35 441.34L3486.29 441ZM3455.49 401.1L3456.06 400.281C3441.86 390.344 3424.62 385.4 3404.39 385.4V386.4V387.4C3424.28 387.4 3441.11 392.256 3454.91 401.919L3455.49 401.1ZM3404.39 386.4V385.4C3385.07 385.4 3367.85 390.349 3352.74 400.264L3353.29 401.1L3353.83 401.936C3368.59 392.251 3385.43 387.4 3404.39 387.4V386.4ZM3353.29 401.1L3352.76 400.252C3337.62 409.71 3326.07 423.883 3318.07 442.709L3318.99 443.1L3319.91 443.491C3327.77 424.984 3339.08 411.157 3353.82 401.948L3353.29 401.1ZM3318.99 443.1L3318.06 442.72C3310.52 461.102 3307.71 483.433 3309.59 509.671L3310.59 509.6L3311.58 509.529C3309.72 483.5 3312.52 461.498 3319.91 443.48L3318.99 443.1ZM3310.59 509.6L3309.59 509.52C3307.71 532.988 3310.76 553.924 3318.77 572.3L3319.69 571.9L3320.6 571.5C3312.75 553.476 3309.73 532.878 3311.58 509.68L3310.59 509.6ZM3319.69 571.9L3318.78 572.328C3327.26 590.226 3339.52 604.144 3355.56 614.051L3356.09 613.2L3356.61 612.349C3340.92 602.656 3328.91 589.04 3320.59 571.472L3319.69 571.9ZM3356.09 613.2L3355.57 614.057C3372.08 623.96 3390.92 628.9 3412.09 628.9V627.9V626.9C3391.25 626.9 3372.76 622.04 3356.6 612.342L3356.09 613.2ZM3412.09 627.9V628.9C3433.23 628.9 3451.15 624.436 3465.81 615.453L3465.29 614.6L3464.76 613.747C3450.49 622.497 3432.95 626.9 3412.09 626.9V627.9ZM3465.29 614.6L3465.8 615.46C3480.88 606.505 3492.67 594.478 3501.16 579.39L3500.29 578.9L3499.41 578.41C3491.1 593.188 3479.56 604.962 3464.78 613.74L3465.29 614.6ZM3500.29 578.9L3499.85 579.798L3574.05 616.198L3574.49 615.3L3574.93 614.402L3500.73 578.002L3500.29 578.9ZM3574.49 615.3L3573.56 614.92C3566.16 632.968 3554.58 648.944 3538.82 662.85L3539.49 663.6L3540.15 664.35C3556.12 650.256 3567.88 634.032 3575.41 615.68L3574.49 615.3ZM3539.49 663.6L3538.82 662.85C3523.06 676.759 3504.27 687.665 3482.45 695.56L3482.79 696.5L3483.13 697.44C3505.17 689.469 3524.18 678.441 3540.15 664.35L3539.49 663.6ZM3482.79 696.5L3482.44 695.562C3461.1 703.449 3437.42 707.4 3411.39 707.4V708.4V709.4C3437.62 709.4 3461.54 705.418 3483.13 697.438L3482.79 696.5ZM3640.5 851.2L3640.69 850.218L3640.66 850.213L3640.64 850.21L3640.5 851.2ZM3613.9 842.8H3612.9V843.402L3613.43 843.684L3613.9 842.8ZM3613.9 766.5L3614.12 765.526L3612.9 765.243V766.5H3613.9ZM3635.6 770.7L3635.43 771.686L3635.44 771.688L3635.6 770.7ZM3705.6 758.1L3704.91 757.376L3704.89 757.393L3704.88 757.41L3705.6 758.1ZM3731.5 720.3L3732.4 720.726L3732.41 720.71L3732.42 720.694L3731.5 720.3ZM3756.7 661.5L3757.7 661.518L3755.78 661.106L3756.7 661.5ZM3755.3 738.5L3754.37 738.868L3756.3 738.518L3755.3 738.5ZM3589.4 319.2V318.2H3587.93L3588.47 319.568L3589.4 319.2ZM3688.1 319.2L3689.04 318.848L3688.79 318.2H3688.1V319.2ZM3804.3 628.6V629.6H3805.74L3805.24 628.248L3804.3 628.6ZM3769.3 628.6L3768.36 628.25L3767.86 629.6H3769.3V628.6ZM3884.8 319.2V318.2H3884.11L3883.86 318.85L3884.8 319.2ZM3984.2 319.2L3985.13 319.568L3985.67 318.2H3984.2V319.2ZM3818.3 738.5L3819.23 738.874L3819.23 738.868L3818.3 738.5ZM3733.6 840L3733.17 839.097L3733.16 839.103L3733.14 839.11L3733.6 840ZM3670.6 854V853C3660.39 853 3650.42 852.072 3640.69 850.218L3640.5 851.2L3640.31 852.182C3650.18 854.061 3660.27 855 3670.6 855V854ZM3640.5 851.2L3640.64 850.21C3630.94 848.825 3622.19 846.057 3614.37 841.916L3613.9 842.8L3613.43 843.684C3621.48 847.943 3630.46 850.775 3640.36 852.19L3640.5 851.2ZM3613.9 842.8H3614.9V766.5H3613.9H3612.9V842.8H3613.9ZM3613.9 766.5L3613.67 767.474C3619.77 768.88 3627.02 770.284 3635.43 771.686L3635.6 770.7L3635.76 769.714C3627.38 768.316 3620.17 766.92 3614.12 765.526L3613.9 766.5ZM3635.6 770.7L3635.44 771.688C3644.35 773.094 3652.57 773.8 3660.1 773.8V772.8V771.8C3652.69 771.8 3644.58 771.106 3635.76 769.712L3635.6 770.7ZM3660.1 772.8V773.8C3681.22 773.8 3696.72 768.874 3706.32 758.79L3705.6 758.1L3704.88 757.41C3695.81 766.926 3680.97 771.8 3660.1 771.8V772.8ZM3705.6 758.1L3706.29 758.824C3716.2 749.384 3724.9 736.673 3732.4 720.726L3731.5 720.3L3730.59 719.874C3723.17 735.66 3714.6 748.149 3704.91 757.376L3705.6 758.1ZM3731.5 720.3L3732.42 720.694L3757.62 661.894L3756.7 661.5L3755.78 661.106L3730.58 719.906L3731.5 720.3ZM3756.7 661.5L3755.7 661.482L3754.3 738.482L3755.3 738.5L3756.3 738.518L3757.7 661.518L3756.7 661.5ZM3755.3 738.5L3756.23 738.132L3590.33 318.832L3589.4 319.2L3588.47 319.568L3754.37 738.868L3755.3 738.5ZM3589.4 319.2V320.2H3688.1V319.2V318.2H3589.4V319.2ZM3688.1 319.2L3687.16 319.552L3803.36 628.952L3804.3 628.6L3805.24 628.248L3689.04 318.848L3688.1 319.2ZM3804.3 628.6V627.6H3769.3V628.6V629.6H3804.3V628.6ZM3769.3 628.6L3770.24 628.95L3885.74 319.55L3884.8 319.2L3883.86 318.85L3768.36 628.25L3769.3 628.6ZM3884.8 319.2V320.2H3984.2V319.2V318.2H3884.8V319.2ZM3984.2 319.2L3983.27 318.832L3817.37 738.132L3818.3 738.5L3819.23 738.868L3985.13 319.568L3984.2 319.2ZM3818.3 738.5L3817.37 738.126C3807.6 762.316 3795.75 782.993 3781.82 800.17L3782.6 800.8L3783.38 801.43C3797.45 784.074 3809.4 763.217 3819.23 738.874L3818.3 738.5ZM3782.6 800.8L3781.82 800.17C3767.91 817.33 3751.69 830.299 3733.17 839.097L3733.6 840L3734.03 840.903C3752.84 831.968 3769.29 818.804 3783.38 801.43L3782.6 800.8ZM3733.6 840L3733.14 839.11C3715.11 848.36 3694.27 853 3670.6 853V854V855C3694.53 855 3715.69 850.307 3734.06 840.89L3733.6 840Z" fill="white" mask="url(#path-1-outside-1_417_34)"/>
<path d="M764.694 489.766H797.637C874.054 489.766 936.001 427.818 936.001 351.402C936.001 274.986 874.054 213.038 797.637 213.038C721.221 213.038 659.274 274.986 659.274 351.402V618.748C659.274 706.081 588.476 776.878 501.144 776.878H490.633" stroke="white" stroke-width="103.028"/>
<path d="M578.361 213.038C504.509 213.038 444.641 272.907 444.641 346.758V618.748C444.641 706.081 373.844 776.878 286.511 776.878H276" stroke="white" stroke-width="103.028"/>
</svg>
